<svg xmlns="http://www.w3.org/2000/svg" xmlns:xlink="http://www.w3.org/1999/xlink" width="609.811" height="614.917" viewBox="0 0 609.811 614.917">
  <defs>
    <clipPath id="clip-path">
      <rect id="Rectángulo_411055" data-name="Rectángulo 411055" width="609.811" height="614.917" fill="none"/>
    </clipPath>
  </defs>
  <g id="Grupo_1188570" data-name="Grupo 1188570" transform="translate(-495.095 -4824)">
    <g id="Grupo_1188565" data-name="Grupo 1188565" transform="translate(495.095 4824)" clip-path="url(#clip-path)">
      <path id="Trazado_1321737" data-name="Trazado 1321737" d="M504.655,293.148c0,121.567-98.55,220.116-220.116,220.116S64.423,414.715,64.423,293.148,162.973,73.033,284.54,73.033s220.116,98.549,220.116,220.116" transform="translate(22.18 25.145)" fill="#d2e1f1"/>
      <path id="Trazado_1321738" data-name="Trazado 1321738" d="M331.185,82.011A82.01,82.01,0,1,1,249.175,0a82.01,82.01,0,0,1,82.01,82.01" transform="translate(57.553 0)" fill="#ee7fbc"/>
      <path id="Trazado_1321739" data-name="Trazado 1321739" d="M253.072,417.427a82.01,82.01,0,1,1-82.01-82.01,82.01,82.01,0,0,1,82.01,82.01" transform="translate(30.659 115.481)" fill="#f6c42b"/>
      <path id="Trazado_1321740" data-name="Trazado 1321740" d="M472.206,133.136a82.01,82.01,0,1,1-82.011-82.01,82.01,82.01,0,0,1,82.011,82.01" transform="translate(106.105 17.602)" fill="#bfd557"/>
      <path id="Trazado_1321741" data-name="Trazado 1321741" d="M164.021,286.306a82.01,82.01,0,1,1-82.01-82.01,82.01,82.01,0,0,1,82.01,82.01" transform="translate(0 70.337)" fill="#78b6fc"/>
      <path id="Trazado_1321742" data-name="Trazado 1321742" d="M495.638,287.022a82.01,82.01,0,1,1-82.01-82.01,82.01,82.01,0,0,1,82.01,82.01" transform="translate(114.173 70.584)" fill="#f89b1c"/>
      <path id="Trazado_1321743" data-name="Trazado 1321743" d="M403.1,415.425a82.01,82.01,0,1,1-82.01-82.01,82.01,82.01,0,0,1,82.01,82.01" transform="translate(82.312 114.792)" fill="#60d9e5"/>
      <path id="Trazado_1321744" data-name="Trazado 1321744" d="M187.448,141.174a82.01,82.01,0,1,1-82.01-82.01,82.009,82.009,0,0,1,82.01,82.01" transform="translate(8.066 20.37)" fill="#f2606e"/>
    </g>
    <g id="Grupo_1188568" data-name="Grupo 1188568" transform="translate(510.396 4825.788)">
      <path id="Trazado_1321790" data-name="Trazado 1321790" d="M8.238-7.383a7.952,7.952,0,0,1-.357,2.7,4.035,4.035,0,0,1-1.2,1.658l-.773.715a3.056,3.056,0,0,0-1.09,2.18,1.628,1.628,0,0,0,.393,1.213,1.4,1.4,0,0,0,1.014.381,1.548,1.548,0,0,0,1.225-.5A2.153,2.153,0,0,0,7.91-.445h3.973a4.8,4.8,0,0,1-1.494,3.656,5.881,5.881,0,0,1-4.072,1.3A6.047,6.047,0,0,1,2.279,3.3,4.257,4.257,0,0,1,.855-.129,3.937,3.937,0,0,1,1.3-1.963,7.273,7.273,0,0,1,2.824-3.832l1-.914A2.692,2.692,0,0,0,4.828-6.539l.059-.844ZM6.668-8.965A2.27,2.27,0,0,1,5.1-9.521a1.819,1.819,0,0,1-.627-1.424A1.819,1.819,0,0,1,5.1-12.369a2.27,2.27,0,0,1,1.564-.557,2.231,2.231,0,0,1,1.576.568,1.844,1.844,0,0,1,.615,1.412,1.844,1.844,0,0,1-.615,1.412A2.231,2.231,0,0,1,6.668-8.965ZM27.316-5.777a6.231,6.231,0,0,1-.961,3.146A5.8,5.8,0,0,1,23.889-.516a8.4,8.4,0,0,1-3.627.75,6.7,6.7,0,0,1-5.3-2.191,9.048,9.048,0,0,1-1.934-6.187v-.844a10.328,10.328,0,0,1,.873-4.389,6.615,6.615,0,0,1,2.514-2.906,7.013,7.013,0,0,1,3.8-1.025,7.354,7.354,0,0,1,4.992,1.635,6.459,6.459,0,0,1,2.145,4.506h-4.1a3.056,3.056,0,0,0-.785-2.238,3.229,3.229,0,0,0-2.25-.68,2.457,2.457,0,0,0-2.25,1.148,7.381,7.381,0,0,0-.75,3.668v1.207a8.167,8.167,0,0,0,.686,3.9,2.509,2.509,0,0,0,2.361,1.172,3.159,3.159,0,0,0,2.168-.668,2.835,2.835,0,0,0,.8-2.121Zm9.316,4.406A4.072,4.072,0,0,1,33.246.234,3.993,3.993,0,0,1,30.088-.979a5.1,5.1,0,0,1-1.072-3.486V-12.68h3.949v8.238a1.419,1.419,0,0,0,1.582,1.629,2.064,2.064,0,0,0,1.934-.973V-12.68h3.973V0h-3.7ZM49.758,0a4.459,4.459,0,0,1-.375-1.137A3.672,3.672,0,0,1,46.336.234,4.5,4.5,0,0,1,43.289-.85a3.45,3.45,0,0,1-1.254-2.725,3.546,3.546,0,0,1,1.523-3.117,7.761,7.761,0,0,1,4.43-1.055h1.219v-.671q0-1.755-1.512-1.755a1.236,1.236,0,0,0-1.406,1.39H42.34A3.54,3.54,0,0,1,43.9-11.767a6.575,6.575,0,0,1,3.99-1.147,5.764,5.764,0,0,1,3.832,1.184,4.115,4.115,0,0,1,1.441,3.246v5.613A5.748,5.748,0,0,0,53.707-.2V0ZM47.285-2.578a2.2,2.2,0,0,0,1.225-.316,1.983,1.983,0,0,0,.7-.715V-5.637H48.059Q46-5.637,46-3.785a1.131,1.131,0,0,0,.363.873A1.315,1.315,0,0,0,47.285-2.578ZM48.27-18h4.172l-3.258,3.68-3.223-.006ZM59.52,0H55.559V-18H59.52ZM74.063.234a6.518,6.518,0,0,1-4.723-1.74,6.009,6.009,0,0,1-1.8-4.529v-.328A7.787,7.787,0,0,1,68.256-9.8a5.274,5.274,0,0,1,2.1-2.3,6.35,6.35,0,0,1,3.281-.814,5.489,5.489,0,0,1,4.219,1.658,6.516,6.516,0,0,1,1.547,4.623V-5.1H71.555a2.846,2.846,0,0,0,.926,1.676,2.755,2.755,0,0,0,1.852.609,3.549,3.549,0,0,0,2.93-1.312l1.8,2.133A5.045,5.045,0,0,1,76.975-.369,7.069,7.069,0,0,1,74.063.234Zm-.445-10.1q-1.734,0-2.062,2.3h3.984v-.3a1.956,1.956,0,0,0-.48-1.471A1.912,1.912,0,0,0,73.617-9.867Zm14.016,6.3a.912.912,0,0,0-.527-.809A8.021,8.021,0,0,0,85.1-5a9.138,9.138,0,0,1-2.437-.861A4.083,4.083,0,0,1,81.2-7.16a3.092,3.092,0,0,1-.5-1.746,3.5,3.5,0,0,1,1.441-2.877,5.938,5.938,0,0,1,3.773-1.131,6.579,6.579,0,0,1,4.031,1.137,3.555,3.555,0,0,1,1.523,2.988H87.5q0-1.523-1.605-1.523a1.591,1.591,0,0,0-1.043.346,1.07,1.07,0,0,0-.422.861.982.982,0,0,0,.516.855,4.872,4.872,0,0,0,1.646.539,14.228,14.228,0,0,1,1.986.5q2.859.984,2.859,3.527A3.321,3.321,0,0,1,89.9-.855,6.758,6.758,0,0,1,85.91.234,6.9,6.9,0,0,1,83-.352a4.86,4.86,0,0,1-1.992-1.594A3.609,3.609,0,0,1,80.3-4.066h3.691a1.526,1.526,0,0,0,.586,1.283,2.41,2.41,0,0,0,1.441.4,1.9,1.9,0,0,0,1.213-.328A1.05,1.05,0,0,0,87.633-3.562ZM103-12.68l.129,1.488a4.36,4.36,0,0,1,3.621-1.723A3.21,3.21,0,0,1,109.992-11a4.22,4.22,0,0,1,3.727-1.91q3.855,0,3.961,4.664V0h-3.961V-8a2.417,2.417,0,0,0-.328-1.418,1.4,1.4,0,0,0-1.2-.445,1.871,1.871,0,0,0-1.746,1.043l.012.164V0H106.5V-7.98a2.541,2.541,0,0,0-.316-1.441,1.393,1.393,0,0,0-1.207-.445,1.894,1.894,0,0,0-1.734,1.043V0H99.293V-12.68ZM124.1,0h-3.961V-12.68H124.1Zm-4.2-15.949a1.763,1.763,0,0,1,.609-1.383,2.3,2.3,0,0,1,1.582-.539,2.3,2.3,0,0,1,1.582.539,1.763,1.763,0,0,1,.609,1.383,1.763,1.763,0,0,1-.609,1.383,2.3,2.3,0,0,1-1.582.539,2.3,2.3,0,0,1-1.582-.539A1.763,1.763,0,0,1,119.906-15.949Z" transform="translate(224.104 263.878)" fill="#001f45"/>
      <path id="Trazado_1321789" data-name="Trazado 1321789" d="M6.469-2.812a1.756,1.756,0,0,0,1.289-.451A1.654,1.654,0,0,0,8.2-4.523h3.7A4.384,4.384,0,0,1,10.412-1.1,5.558,5.558,0,0,1,6.563.234,5.627,5.627,0,0,1,2.2-1.5,6.834,6.834,0,0,1,.609-6.3v-.164a7.723,7.723,0,0,1,.709-3.393,5.162,5.162,0,0,1,2.045-2.262,6.1,6.1,0,0,1,3.164-.791,5.488,5.488,0,0,1,3.926,1.371,4.863,4.863,0,0,1,1.453,3.715H8.2a2.168,2.168,0,0,0-.48-1.512,1.658,1.658,0,0,0-1.289-.527Q4.9-9.867,4.641-7.91A13.809,13.809,0,0,0,4.559-6.2a5.424,5.424,0,0,0,.457,2.648A1.582,1.582,0,0,0,6.469-2.812Zm6.609-3.645a7.484,7.484,0,0,1,.738-3.381,5.28,5.28,0,0,1,2.121-2.279,6.388,6.388,0,0,1,3.246-.8,5.83,5.83,0,0,1,4.488,1.764,6.768,6.768,0,0,1,1.641,4.8v.141a6.566,6.566,0,0,1-1.646,4.705A5.846,5.846,0,0,1,19.207.234a5.912,5.912,0,0,1-4.348-1.623,6.348,6.348,0,0,1-1.77-4.4Zm3.949.246a4.718,4.718,0,0,0,.551,2.578,1.835,1.835,0,0,0,1.629.82q2.109,0,2.156-3.246v-.4q0-3.41-2.18-3.41-1.98,0-2.145,2.941ZM30.785-12.68l.129,1.488a4.36,4.36,0,0,1,3.621-1.723A3.21,3.21,0,0,1,37.781-11a4.22,4.22,0,0,1,3.727-1.91q3.855,0,3.961,4.664V0H41.508V-8a2.417,2.417,0,0,0-.328-1.418,1.4,1.4,0,0,0-1.2-.445,1.871,1.871,0,0,0-1.746,1.043l.012.164V0H34.289V-7.98a2.541,2.541,0,0,0-.316-1.441,1.393,1.393,0,0,0-1.207-.445,1.894,1.894,0,0,0-1.734,1.043V0H27.082V-12.68ZM59.5-6.246a7.646,7.646,0,0,1-1.33,4.717A4.264,4.264,0,0,1,54.574.234,3.655,3.655,0,0,1,51.7-1.043V4.875H47.754V-12.68h3.691l.117,1.172a3.656,3.656,0,0,1,2.988-1.406A4.3,4.3,0,0,1,58.2-11.186a7.741,7.741,0,0,1,1.3,4.752Zm-3.949-.246q0-3.375-1.969-3.375A1.859,1.859,0,0,0,51.7-8.859v4.992a1.919,1.919,0,0,0,1.9,1.055q1.887,0,1.945-3.258ZM68.906-9.105l-1.3-.094a2.336,2.336,0,0,0-2.391,1.172V0H61.266V-12.68h3.7l.129,1.629a3.058,3.058,0,0,1,2.777-1.863,3.851,3.851,0,0,1,1.1.141ZM69-6.457a7.484,7.484,0,0,1,.738-3.381,5.28,5.28,0,0,1,2.121-2.279,6.388,6.388,0,0,1,3.246-.8A5.83,5.83,0,0,1,79.6-11.15a6.768,6.768,0,0,1,1.641,4.8v.141A6.566,6.566,0,0,1,79.59-1.506,5.846,5.846,0,0,1,75.131.234a5.912,5.912,0,0,1-4.348-1.623,6.348,6.348,0,0,1-1.77-4.4Zm3.949.246A4.718,4.718,0,0,0,73.5-3.633a1.835,1.835,0,0,0,1.629.82q2.109,0,2.156-3.246v-.4q0-3.41-2.18-3.41-1.98,0-2.145,2.941ZM86.709-12.68l.129,1.488a4.36,4.36,0,0,1,3.621-1.723A3.21,3.21,0,0,1,93.705-11a4.22,4.22,0,0,1,3.727-1.91q3.855,0,3.961,4.664V0H97.432V-8A2.417,2.417,0,0,0,97.1-9.422a1.4,1.4,0,0,0-1.2-.445,1.871,1.871,0,0,0-1.746,1.043l.012.164V0H90.213V-7.98A2.541,2.541,0,0,0,89.9-9.422a1.393,1.393,0,0,0-1.207-.445,1.894,1.894,0,0,0-1.734,1.043V0H83.006V-12.68ZM107.815,0h-3.961V-12.68h3.961Zm-4.2-15.949a1.763,1.763,0,0,1,.609-1.383,2.3,2.3,0,0,1,1.582-.539,2.3,2.3,0,0,1,1.582.539A1.763,1.763,0,0,1,108-15.949a1.763,1.763,0,0,1-.609,1.383,2.3,2.3,0,0,1-1.582.539,2.3,2.3,0,0,1-1.582-.539A1.763,1.763,0,0,1,103.619-15.949ZM116.885-3.562a.912.912,0,0,0-.527-.809,8.021,8.021,0,0,0-2-.633,9.138,9.138,0,0,1-2.437-.861,4.083,4.083,0,0,1-1.465-1.295,3.092,3.092,0,0,1-.5-1.746,3.5,3.5,0,0,1,1.441-2.877,5.938,5.938,0,0,1,3.773-1.131,6.579,6.579,0,0,1,4.031,1.137,3.555,3.555,0,0,1,1.523,2.988h-3.961q0-1.523-1.605-1.523a1.591,1.591,0,0,0-1.043.346,1.07,1.07,0,0,0-.422.861.982.982,0,0,0,.516.855,4.872,4.872,0,0,0,1.646.539,14.228,14.228,0,0,1,1.986.5q2.859.984,2.859,3.527a3.321,3.321,0,0,1-1.541,2.824,6.758,6.758,0,0,1-3.99,1.09,6.9,6.9,0,0,1-2.906-.586,4.86,4.86,0,0,1-1.992-1.594,3.609,3.609,0,0,1-.715-2.121h3.691a1.526,1.526,0,0,0,.586,1.283,2.41,2.41,0,0,0,1.441.4,1.9,1.9,0,0,0,1.213-.328A1.05,1.05,0,0,0,116.885-3.562Zm5.156-2.895a7.484,7.484,0,0,1,.738-3.381,5.28,5.28,0,0,1,2.121-2.279,6.388,6.388,0,0,1,3.246-.8,5.83,5.83,0,0,1,4.488,1.764,6.768,6.768,0,0,1,1.641,4.8v.141a6.566,6.566,0,0,1-1.646,4.705A5.846,5.846,0,0,1,128.17.234a5.912,5.912,0,0,1-4.348-1.623,6.348,6.348,0,0,1-1.77-4.4Zm3.949.246a4.718,4.718,0,0,0,.551,2.578,1.835,1.835,0,0,0,1.629.82q2.109,0,2.156-3.246v-.4q0-3.41-2.18-3.41-1.98,0-2.145,2.941ZM148.127.234a6.518,6.518,0,0,1-4.723-1.74,6.009,6.009,0,0,1-1.8-4.529v-.328a7.787,7.787,0,0,1,.721-3.434,5.274,5.274,0,0,1,2.1-2.3,6.35,6.35,0,0,1,3.281-.814,5.489,5.489,0,0,1,4.219,1.658,6.516,6.516,0,0,1,1.547,4.623V-5.1h-7.852a2.846,2.846,0,0,0,.926,1.676,2.755,2.755,0,0,0,1.852.609,3.549,3.549,0,0,0,2.93-1.312l1.8,2.133a5.045,5.045,0,0,1-2.092,1.623A7.069,7.069,0,0,1,148.127.234Zm-.445-10.1q-1.734,0-2.062,2.3H149.6v-.3a1.956,1.956,0,0,0-.48-1.471A1.912,1.912,0,0,0,147.682-9.867Zm11-2.812.129,1.488a4.3,4.3,0,0,1,3.621-1.723,3.618,3.618,0,0,1,2.959,1.184,5.635,5.635,0,0,1,1.014,3.563V0h-3.961V-8a2.14,2.14,0,0,0-.387-1.412,1.789,1.789,0,0,0-1.406-.451,1.883,1.883,0,0,0-1.723.914V0h-3.949V-12.68ZM178.737,0h-3.961V-18h3.961Zm1.934-6.457a7.484,7.484,0,0,1,.738-3.381,5.28,5.28,0,0,1,2.121-2.279,6.388,6.388,0,0,1,3.246-.8,5.83,5.83,0,0,1,4.488,1.764,6.768,6.768,0,0,1,1.641,4.8v.141a6.566,6.566,0,0,1-1.646,4.705A5.846,5.846,0,0,1,186.8.234a5.912,5.912,0,0,1-4.348-1.623,6.348,6.348,0,0,1-1.77-4.4Zm3.949.246a4.718,4.718,0,0,0,.551,2.578,1.835,1.835,0,0,0,1.629.82q2.109,0,2.156-3.246v-.4q0-3.41-2.18-3.41-1.98,0-2.145,2.941Zm16.664,2.648a.912.912,0,0,0-.527-.809,8.021,8.021,0,0,0-2-.633,9.138,9.138,0,0,1-2.437-.861A4.083,4.083,0,0,1,194.85-7.16a3.092,3.092,0,0,1-.5-1.746,3.5,3.5,0,0,1,1.441-2.877,5.938,5.938,0,0,1,3.773-1.131,6.579,6.579,0,0,1,4.031,1.137,3.555,3.555,0,0,1,1.523,2.988h-3.961q0-1.523-1.605-1.523a1.591,1.591,0,0,0-1.043.346,1.07,1.07,0,0,0-.422.861.982.982,0,0,0,.516.855,4.872,4.872,0,0,0,1.646.539,14.228,14.228,0,0,1,1.986.5q2.859.984,2.859,3.527a3.321,3.321,0,0,1-1.541,2.824,6.758,6.758,0,0,1-3.99,1.09,6.9,6.9,0,0,1-2.906-.586,4.86,4.86,0,0,1-1.992-1.594,3.609,3.609,0,0,1-.715-2.121h3.691a1.526,1.526,0,0,0,.586,1.283,2.41,2.41,0,0,0,1.441.4,1.9,1.9,0,0,0,1.213-.328A1.05,1.05,0,0,0,201.283-3.562Z" transform="translate(184.838 293.701)" fill="#001f45"/>
      <path id="Trazado_1321791" data-name="Trazado 1321791" d="M.609-6.434a7.746,7.746,0,0,1,1.3-4.746,4.282,4.282,0,0,1,3.633-1.734A3.641,3.641,0,0,1,8.4-11.578V-18h3.961V0H8.813l-.2-1.359A3.739,3.739,0,0,1,5.52.234,4.274,4.274,0,0,1,1.934-1.5,7.991,7.991,0,0,1,.609-6.434Zm3.949.246q0,3.375,1.969,3.375A1.944,1.944,0,0,0,8.4-3.914V-8.742A1.892,1.892,0,0,0,6.551-9.867q-1.828,0-1.98,2.953ZM18.773,0H14.813V-12.68h3.961Zm-4.2-15.949a1.763,1.763,0,0,1,.609-1.383,2.3,2.3,0,0,1,1.582-.539,2.3,2.3,0,0,1,1.582.539,1.763,1.763,0,0,1,.609,1.383,1.763,1.763,0,0,1-.609,1.383,2.3,2.3,0,0,1-1.582.539,2.3,2.3,0,0,1-1.582-.539A1.763,1.763,0,0,1,14.578-15.949ZM22.078,0V-9.937h-1.84V-12.68h1.84v-1.008a4.381,4.381,0,0,1,1.277-3.363,5.047,5.047,0,0,1,3.586-1.2A7.853,7.853,0,0,1,28.793-18l.012,2.906a3.608,3.608,0,0,0-.973-.105q-1.793,0-1.793,1.547v.973h2.473v2.742H26.039V0ZM35.771.234a6.518,6.518,0,0,1-4.723-1.74,6.009,6.009,0,0,1-1.8-4.529v-.328A7.787,7.787,0,0,1,29.965-9.8a5.274,5.274,0,0,1,2.1-2.3,6.35,6.35,0,0,1,3.281-.814,5.489,5.489,0,0,1,4.219,1.658,6.516,6.516,0,0,1,1.547,4.623V-5.1H33.263a2.846,2.846,0,0,0,.926,1.676,2.755,2.755,0,0,0,1.852.609,3.549,3.549,0,0,0,2.93-1.312l1.8,2.133A5.045,5.045,0,0,1,38.683-.369,7.069,7.069,0,0,1,35.771.234Zm-.445-10.1q-1.734,0-2.062,2.3h3.984v-.3a1.956,1.956,0,0,0-.48-1.471A1.912,1.912,0,0,0,35.326-9.867Zm15.047.762-1.3-.094a2.336,2.336,0,0,0-2.391,1.172V0H42.732V-12.68h3.7l.129,1.629a3.058,3.058,0,0,1,2.777-1.863,3.851,3.851,0,0,1,1.1.141ZM57.715.234a6.518,6.518,0,0,1-4.723-1.74,6.009,6.009,0,0,1-1.8-4.529v-.328A7.787,7.787,0,0,1,51.909-9.8a5.274,5.274,0,0,1,2.1-2.3,6.35,6.35,0,0,1,3.281-.814,5.489,5.489,0,0,1,4.219,1.658,6.516,6.516,0,0,1,1.547,4.623V-5.1H55.208a2.846,2.846,0,0,0,.926,1.676,2.755,2.755,0,0,0,1.852.609,3.549,3.549,0,0,0,2.93-1.312l1.8,2.133A5.045,5.045,0,0,1,60.627-.369,7.069,7.069,0,0,1,57.715.234Zm-.445-10.1q-1.734,0-2.062,2.3h3.984v-.3a1.956,1.956,0,0,0-.48-1.471A1.912,1.912,0,0,0,57.27-9.867Zm11-2.812.129,1.488a4.3,4.3,0,0,1,3.621-1.723,3.618,3.618,0,0,1,2.959,1.184A5.635,5.635,0,0,1,76-8.168V0H72.036V-8a2.14,2.14,0,0,0-.387-1.412,1.789,1.789,0,0,0-1.406-.451,1.883,1.883,0,0,0-1.723.914V0H64.571V-12.68Zm14.508-3.152v3.152h2.086v2.742H82.782v5.8a1.481,1.481,0,0,0,.258,1,1.383,1.383,0,0,0,1.02.281,5.793,5.793,0,0,0,.984-.07V-.105a7.288,7.288,0,0,1-2.227.34,4.137,4.137,0,0,1-3.012-.961,3.939,3.939,0,0,1-.973-2.918V-9.937H77.215V-12.68h1.617v-3.152ZM92.555.234a6.518,6.518,0,0,1-4.723-1.74,6.009,6.009,0,0,1-1.8-4.529v-.328A7.787,7.787,0,0,1,86.749-9.8a5.274,5.274,0,0,1,2.1-2.3,6.35,6.35,0,0,1,3.281-.814,5.489,5.489,0,0,1,4.219,1.658A6.516,6.516,0,0,1,97.9-6.633V-5.1H90.047a2.846,2.846,0,0,0,.926,1.676,2.755,2.755,0,0,0,1.852.609,3.549,3.549,0,0,0,2.93-1.312l1.8,2.133A5.045,5.045,0,0,1,95.467-.369,7.069,7.069,0,0,1,92.555.234Zm-.445-10.1q-1.734,0-2.062,2.3h3.984v-.3a1.956,1.956,0,0,0-.48-1.471A1.912,1.912,0,0,0,92.11-9.867Zm14.016,6.3a.912.912,0,0,0-.527-.809,8.021,8.021,0,0,0-2-.633,9.138,9.138,0,0,1-2.437-.861A4.083,4.083,0,0,1,99.692-7.16a3.092,3.092,0,0,1-.5-1.746,3.5,3.5,0,0,1,1.441-2.877,5.938,5.938,0,0,1,3.773-1.131,6.579,6.579,0,0,1,4.031,1.137,3.555,3.555,0,0,1,1.523,2.988H106q0-1.523-1.605-1.523a1.591,1.591,0,0,0-1.043.346,1.07,1.07,0,0,0-.422.861.982.982,0,0,0,.516.855,4.872,4.872,0,0,0,1.646.539,14.228,14.228,0,0,1,1.986.5q2.859.984,2.859,3.527a3.321,3.321,0,0,1-1.541,2.824A6.758,6.758,0,0,1,104.4.234,6.9,6.9,0,0,1,101.5-.352,4.86,4.86,0,0,1,99.5-1.945a3.609,3.609,0,0,1-.715-2.121h3.691a1.526,1.526,0,0,0,.586,1.283,2.41,2.41,0,0,0,1.441.4,1.9,1.9,0,0,0,1.213-.328A1.05,1.05,0,0,0,106.125-3.562Zm17.766,3.8a6.518,6.518,0,0,1-4.723-1.74,6.009,6.009,0,0,1-1.8-4.529v-.328a7.787,7.787,0,0,1,.721-3.434,5.274,5.274,0,0,1,2.1-2.3,6.35,6.35,0,0,1,3.281-.814,5.489,5.489,0,0,1,4.219,1.658,6.516,6.516,0,0,1,1.547,4.623V-5.1h-7.852a2.846,2.846,0,0,0,.926,1.676,2.755,2.755,0,0,0,1.852.609,3.549,3.549,0,0,0,2.93-1.312l1.8,2.133A5.045,5.045,0,0,1,126.8-.369,7.069,7.069,0,0,1,123.891.234Zm-.445-10.1q-1.734,0-2.062,2.3h3.984v-.3a1.956,1.956,0,0,0-.48-1.471A1.912,1.912,0,0,0,123.446-9.867Zm11-2.812.129,1.488a4.3,4.3,0,0,1,3.621-1.723,3.618,3.618,0,0,1,2.959,1.184,5.635,5.635,0,0,1,1.014,3.563V0h-3.961V-8a2.14,2.14,0,0,0-.387-1.412,1.789,1.789,0,0,0-1.406-.451,1.883,1.883,0,0,0-1.723.914V0h-3.949V-12.68Zm14.508-3.152v3.152h2.086v2.742h-2.086v5.8a1.481,1.481,0,0,0,.258,1,1.383,1.383,0,0,0,1.02.281,5.793,5.793,0,0,0,.984-.07V-.105a7.288,7.288,0,0,1-2.227.34,4.137,4.137,0,0,1-3.012-.961,3.939,3.939,0,0,1-.973-2.918V-9.937h-1.617V-12.68h1.617v-3.152Zm2.453,9.375a7.484,7.484,0,0,1,.738-3.381,5.28,5.28,0,0,1,2.121-2.279,6.388,6.388,0,0,1,3.246-.8A5.83,5.83,0,0,1,162-11.15a6.768,6.768,0,0,1,1.641,4.8v.141A6.566,6.566,0,0,1,162-1.506a5.846,5.846,0,0,1-4.459,1.74,5.912,5.912,0,0,1-4.348-1.623,6.348,6.348,0,0,1-1.77-4.4Zm3.949.246a4.718,4.718,0,0,0,.551,2.578,1.835,1.835,0,0,0,1.629.82q2.109,0,2.156-3.246v-.4q0-3.41-2.18-3.41-1.98,0-2.145,2.941Zm17.7-2.895-1.3-.094a2.336,2.336,0,0,0-2.391,1.172V0h-3.949V-12.68h3.7l.129,1.629a3.058,3.058,0,0,1,2.777-1.863,3.851,3.851,0,0,1,1.1.141Zm5.051-3.574.129,1.488a4.3,4.3,0,0,1,3.621-1.723,3.618,3.618,0,0,1,2.959,1.184,5.635,5.635,0,0,1,1.014,3.563V0h-3.961V-8a2.14,2.14,0,0,0-.387-1.412,1.789,1.789,0,0,0-1.406-.451,1.883,1.883,0,0,0-1.723.914V0H174.4V-12.68Zm9.41,6.223a7.484,7.484,0,0,1,.738-3.381,5.28,5.28,0,0,1,2.121-2.279,6.388,6.388,0,0,1,3.246-.8,5.83,5.83,0,0,1,4.488,1.764,6.768,6.768,0,0,1,1.641,4.8v.141A6.566,6.566,0,0,1,198.1-1.506a5.846,5.846,0,0,1-4.459,1.74A5.912,5.912,0,0,1,189.3-1.389a6.348,6.348,0,0,1-1.77-4.4Zm3.949.246a4.718,4.718,0,0,0,.551,2.578,1.835,1.835,0,0,0,1.629.82q2.109,0,2.156-3.246v-.4q0-3.41-2.18-3.41-1.98,0-2.145,2.941Zm16.664,2.648a.912.912,0,0,0-.527-.809,8.021,8.021,0,0,0-2-.633,9.138,9.138,0,0,1-2.437-.861A4.083,4.083,0,0,1,201.7-7.16a3.092,3.092,0,0,1-.5-1.746,3.5,3.5,0,0,1,1.441-2.877,5.938,5.938,0,0,1,3.773-1.131,6.579,6.579,0,0,1,4.031,1.137,3.555,3.555,0,0,1,1.523,2.988H208q0-1.523-1.605-1.523a1.591,1.591,0,0,0-1.043.346,1.07,1.07,0,0,0-.422.861.982.982,0,0,0,.516.855,4.872,4.872,0,0,0,1.646.539,14.228,14.228,0,0,1,1.986.5q2.859.984,2.859,3.527A3.321,3.321,0,0,1,210.4-.855a6.758,6.758,0,0,1-3.99,1.09A6.9,6.9,0,0,1,203.5-.352a4.86,4.86,0,0,1-1.992-1.594,3.609,3.609,0,0,1-.715-2.121h3.691a1.526,1.526,0,0,0,.586,1.283,2.41,2.41,0,0,0,1.441.4,1.9,1.9,0,0,0,1.213-.328A1.05,1.05,0,0,0,208.129-3.562Z" transform="translate(180.604 323.525)" fill="#001f45"/>
      <path id="Trazado_1321792" data-name="Trazado 1321792" d="M6.469-2.812a1.756,1.756,0,0,0,1.289-.451A1.654,1.654,0,0,0,8.2-4.523h3.7A4.384,4.384,0,0,1,10.412-1.1,5.558,5.558,0,0,1,6.563.234,5.627,5.627,0,0,1,2.2-1.5,6.834,6.834,0,0,1,.609-6.3v-.164a7.723,7.723,0,0,1,.709-3.393,5.162,5.162,0,0,1,2.045-2.262,6.1,6.1,0,0,1,3.164-.791,5.488,5.488,0,0,1,3.926,1.371,4.863,4.863,0,0,1,1.453,3.715H8.2a2.168,2.168,0,0,0-.48-1.512,1.658,1.658,0,0,0-1.289-.527Q4.9-9.867,4.641-7.91A13.809,13.809,0,0,0,4.559-6.2a5.424,5.424,0,0,0,.457,2.648A1.582,1.582,0,0,0,6.469-2.812Zm6.609-3.645a7.484,7.484,0,0,1,.738-3.381,5.28,5.28,0,0,1,2.121-2.279,6.388,6.388,0,0,1,3.246-.8,5.83,5.83,0,0,1,4.488,1.764,6.768,6.768,0,0,1,1.641,4.8v.141a6.566,6.566,0,0,1-1.646,4.705A5.846,5.846,0,0,1,19.207.234a5.912,5.912,0,0,1-4.348-1.623,6.348,6.348,0,0,1-1.77-4.4Zm3.949.246a4.718,4.718,0,0,0,.551,2.578,1.835,1.835,0,0,0,1.629.82q2.109,0,2.156-3.246v-.4q0-3.41-2.18-3.41-1.98,0-2.145,2.941ZM30.68-12.68l.129,1.488a4.3,4.3,0,0,1,3.621-1.723,3.618,3.618,0,0,1,2.959,1.184A5.635,5.635,0,0,1,38.4-8.168V0H34.441V-8a2.14,2.14,0,0,0-.387-1.412,1.789,1.789,0,0,0-1.406-.451,1.883,1.883,0,0,0-1.723.914V0H26.977V-12.68ZM50.73,0H46.77V-18H50.73Zm1.934-6.457A7.484,7.484,0,0,1,53.4-9.838a5.28,5.28,0,0,1,2.121-2.279,6.388,6.388,0,0,1,3.246-.8,5.83,5.83,0,0,1,4.488,1.764,6.768,6.768,0,0,1,1.641,4.8v.141a6.566,6.566,0,0,1-1.646,4.705A5.846,5.846,0,0,1,58.793.234a5.912,5.912,0,0,1-4.348-1.623,6.348,6.348,0,0,1-1.77-4.4Zm3.949.246a4.718,4.718,0,0,0,.551,2.578,1.835,1.835,0,0,0,1.629.82q2.109,0,2.156-3.246v-.4q0-3.41-2.18-3.41-1.98,0-2.145,2.941ZM73.277-3.562a.912.912,0,0,0-.527-.809,8.021,8.021,0,0,0-2-.633,9.138,9.138,0,0,1-2.437-.861A4.083,4.083,0,0,1,66.844-7.16a3.092,3.092,0,0,1-.5-1.746,3.5,3.5,0,0,1,1.441-2.877,5.938,5.938,0,0,1,3.773-1.131,6.579,6.579,0,0,1,4.031,1.137,3.555,3.555,0,0,1,1.523,2.988H73.148q0-1.523-1.605-1.523a1.591,1.591,0,0,0-1.043.346,1.07,1.07,0,0,0-.422.861.982.982,0,0,0,.516.855,4.872,4.872,0,0,0,1.646.539,14.228,14.228,0,0,1,1.986.5q2.859.984,2.859,3.527A3.321,3.321,0,0,1,75.545-.855a6.758,6.758,0,0,1-3.99,1.09,6.9,6.9,0,0,1-2.906-.586,4.86,4.86,0,0,1-1.992-1.594,3.609,3.609,0,0,1-.715-2.121h3.691a1.526,1.526,0,0,0,.586,1.283,2.41,2.41,0,0,0,1.441.4,1.9,1.9,0,0,0,1.213-.328A1.05,1.05,0,0,0,73.277-3.562ZM84.41-6.469A7.611,7.611,0,0,1,85.723-11.2a4.311,4.311,0,0,1,3.621-1.711,3.682,3.682,0,0,1,3.117,1.594l.281-1.359h3.422V4.875H92.2v-5.93A3.676,3.676,0,0,1,89.32.234a4.273,4.273,0,0,1-3.58-1.74A8.036,8.036,0,0,1,84.41-6.469Zm3.949.246q0,3.41,1.969,3.41A1.907,1.907,0,0,0,92.2-3.844V-8.859a1.866,1.866,0,0,0-1.852-1.008q-1.84,0-1.98,2.941Zm17.59,4.852A4.072,4.072,0,0,1,102.563.234,3.993,3.993,0,0,1,99.4-.979a5.1,5.1,0,0,1-1.072-3.486V-12.68h3.949v8.238a1.419,1.419,0,0,0,1.582,1.629,2.064,2.064,0,0,0,1.934-.973V-12.68h3.973V0h-3.7ZM118.066.234a6.518,6.518,0,0,1-4.723-1.74,6.009,6.009,0,0,1-1.8-4.529v-.328A7.787,7.787,0,0,1,112.26-9.8a5.274,5.274,0,0,1,2.1-2.3,6.35,6.35,0,0,1,3.281-.814,5.489,5.489,0,0,1,4.219,1.658,6.516,6.516,0,0,1,1.547,4.623V-5.1h-7.852a2.846,2.846,0,0,0,.926,1.676,2.755,2.755,0,0,0,1.852.609,3.549,3.549,0,0,0,2.93-1.312l1.8,2.133a5.045,5.045,0,0,1-2.092,1.623A7.069,7.069,0,0,1,118.066.234Zm-.445-10.1q-1.734,0-2.062,2.3h3.984v-.3a1.956,1.956,0,0,0-.48-1.471A1.912,1.912,0,0,0,117.621-9.867Zm17.086-2.812.129,1.488a4.36,4.36,0,0,1,3.621-1.723A3.21,3.21,0,0,1,141.7-11a4.22,4.22,0,0,1,3.727-1.91q3.855,0,3.961,4.664V0H145.43V-8a2.417,2.417,0,0,0-.328-1.418,1.4,1.4,0,0,0-1.2-.445,1.871,1.871,0,0,0-1.746,1.043l.012.164V0h-3.961V-7.98a2.541,2.541,0,0,0-.316-1.441,1.393,1.393,0,0,0-1.207-.445,1.894,1.894,0,0,0-1.734,1.043V0H131V-12.68ZM157.781.234a6.518,6.518,0,0,1-4.723-1.74,6.009,6.009,0,0,1-1.8-4.529v-.328a7.787,7.787,0,0,1,.721-3.434,5.274,5.274,0,0,1,2.1-2.3,6.35,6.35,0,0,1,3.281-.814,5.489,5.489,0,0,1,4.219,1.658,6.516,6.516,0,0,1,1.547,4.623V-5.1h-7.852a2.846,2.846,0,0,0,.926,1.676,2.755,2.755,0,0,0,1.852.609,3.549,3.549,0,0,0,2.93-1.312l1.8,2.133a5.045,5.045,0,0,1-2.092,1.623A7.069,7.069,0,0,1,157.781.234Zm-.445-10.1q-1.734,0-2.062,2.3h3.984v-.3a1.956,1.956,0,0,0-.48-1.471A1.912,1.912,0,0,0,157.336-9.867Z" transform="translate(204.604 353.348)" fill="#001f45"/>
      <path id="Trazado_1321793" data-name="Trazado 1321793" d="M8.777-9.105,7.477-9.2A2.336,2.336,0,0,0,5.086-8.027V0H1.137V-12.68h3.7l.129,1.629a3.058,3.058,0,0,1,2.777-1.863,3.851,3.851,0,0,1,1.1.141ZM16.12.234A6.518,6.518,0,0,1,11.4-1.506a6.009,6.009,0,0,1-1.8-4.529v-.328A7.787,7.787,0,0,1,10.313-9.8a5.274,5.274,0,0,1,2.1-2.3,6.35,6.35,0,0,1,3.281-.814,5.489,5.489,0,0,1,4.219,1.658,6.516,6.516,0,0,1,1.547,4.623V-5.1H13.612a2.846,2.846,0,0,0,.926,1.676,2.755,2.755,0,0,0,1.852.609,3.549,3.549,0,0,0,2.93-1.312l1.8,2.133A5.045,5.045,0,0,1,19.032-.369,7.069,7.069,0,0,1,16.12.234Zm-.445-10.1q-1.734,0-2.062,2.3H17.6v-.3a1.956,1.956,0,0,0-.48-1.471A1.912,1.912,0,0,0,15.675-9.867ZM27.218,0H23.257V-18h3.961Zm9.574,0a4.459,4.459,0,0,1-.375-1.137A3.672,3.672,0,0,1,33.37.234,4.5,4.5,0,0,1,30.323-.85a3.45,3.45,0,0,1-1.254-2.725,3.546,3.546,0,0,1,1.523-3.117,7.761,7.761,0,0,1,4.43-1.055h1.219v-.671q0-1.755-1.512-1.755a1.236,1.236,0,0,0-1.406,1.39H29.374a3.54,3.54,0,0,1,1.564-2.985,6.575,6.575,0,0,1,3.99-1.147,5.764,5.764,0,0,1,3.832,1.184A4.115,4.115,0,0,1,40.2-8.484v5.613A5.748,5.748,0,0,0,40.741-.2V0ZM34.319-2.578a2.2,2.2,0,0,0,1.225-.316,1.983,1.983,0,0,0,.7-.715V-5.637H35.093q-2.062,0-2.062,1.852a1.131,1.131,0,0,0,.363.873A1.315,1.315,0,0,0,34.319-2.578Zm13.43-.234a1.756,1.756,0,0,0,1.289-.451,1.654,1.654,0,0,0,.445-1.26h3.7A4.384,4.384,0,0,1,51.692-1.1,5.558,5.558,0,0,1,47.843.234,5.627,5.627,0,0,1,43.483-1.5a6.834,6.834,0,0,1-1.594-4.8v-.164A7.723,7.723,0,0,1,42.6-9.861a5.162,5.162,0,0,1,2.045-2.262,6.1,6.1,0,0,1,3.164-.791,5.488,5.488,0,0,1,3.926,1.371,4.863,4.863,0,0,1,1.453,3.715h-3.7A2.168,2.168,0,0,0,49-9.34a1.658,1.658,0,0,0-1.289-.527q-1.535,0-1.793,1.957A13.809,13.809,0,0,0,45.839-6.2,5.424,5.424,0,0,0,46.3-3.551,1.582,1.582,0,0,0,47.749-2.812ZM59.022,0H55.061V-12.68h3.961Zm-4.2-15.949a1.763,1.763,0,0,1,.609-1.383,2.3,2.3,0,0,1,1.582-.539,2.3,2.3,0,0,1,1.582.539,1.763,1.763,0,0,1,.609,1.383,1.763,1.763,0,0,1-.609,1.383,2.3,2.3,0,0,1-1.582.539,2.3,2.3,0,0,1-1.582-.539A1.763,1.763,0,0,1,54.827-15.949Zm6.129,9.492a7.484,7.484,0,0,1,.738-3.381,5.28,5.28,0,0,1,2.121-2.279,6.388,6.388,0,0,1,3.246-.8A5.83,5.83,0,0,1,71.55-11.15a6.768,6.768,0,0,1,1.641,4.8v.141a6.566,6.566,0,0,1-1.646,4.705A5.846,5.846,0,0,1,67.085.234a5.912,5.912,0,0,1-4.348-1.623,6.348,6.348,0,0,1-1.77-4.4Zm3.949.246a4.718,4.718,0,0,0,.551,2.578,1.835,1.835,0,0,0,1.629.82q2.109,0,2.156-3.246v-.4q0-3.41-2.18-3.41-1.98,0-2.145,2.941ZM78.557-12.68l.129,1.488a4.3,4.3,0,0,1,3.621-1.723,3.618,3.618,0,0,1,2.959,1.184A5.635,5.635,0,0,1,86.28-8.168V0H82.319V-8a2.14,2.14,0,0,0-.387-1.412,1.789,1.789,0,0,0-1.406-.451,1.883,1.883,0,0,0-1.723.914V0H74.854V-12.68Zm9.41,6.223a7.484,7.484,0,0,1,.738-3.381,5.28,5.28,0,0,1,2.121-2.279,6.388,6.388,0,0,1,3.246-.8,5.83,5.83,0,0,1,4.488,1.764,6.768,6.768,0,0,1,1.641,4.8v.141a6.566,6.566,0,0,1-1.646,4.705A5.846,5.846,0,0,1,94.1.234a5.912,5.912,0,0,1-4.348-1.623,6.348,6.348,0,0,1-1.77-4.4Zm3.949.246a4.718,4.718,0,0,0,.551,2.578,1.835,1.835,0,0,0,1.629.82q2.109,0,2.156-3.246v-.4q0-3.41-2.18-3.41-1.98,0-2.145,2.941Zm12.949.809a7.627,7.627,0,0,1,.387-2.7,4.225,4.225,0,0,1,1.254-1.717,8.337,8.337,0,0,0,1.318-1.33,2.171,2.171,0,0,0,.451-1.33q0-1.77-1.523-1.77a1.413,1.413,0,0,0-1.137.516,2.193,2.193,0,0,0-.457,1.395H101.2a4.725,4.725,0,0,1,1.477-3.65,5.887,5.887,0,0,1,4.078-1.307A6.115,6.115,0,0,1,110.8-16.09a4.237,4.237,0,0,1,1.436,3.434,4,4,0,0,1-.387,1.77,5.98,5.98,0,0,1-1.242,1.629L109.261-8a3.17,3.17,0,0,0-.8,1.131,4.481,4.481,0,0,0-.246,1.471Zm-.48,3.563a1.819,1.819,0,0,1,.627-1.424,2.27,2.27,0,0,1,1.564-.557,2.27,2.27,0,0,1,1.564.557,1.819,1.819,0,0,1,.627,1.424,1.819,1.819,0,0,1-.627,1.424,2.27,2.27,0,0,1-1.564.557,2.27,2.27,0,0,1-1.564-.557A1.819,1.819,0,0,1,104.386-1.84Z" transform="translate(233.104 383.171)" fill="#001f45"/>
    </g>
    <path id="Trazado_1321783" data-name="Trazado 1321783" d="M7.176-3.878l3.545-11.763h3.588L8.862,0H5.5L.075-15.641H3.652ZM20.464.215A5.706,5.706,0,0,1,16.3-1.354,5.575,5.575,0,0,1,14.7-5.532v-.3a7.021,7.021,0,0,1,.677-3.131,4.967,4.967,0,0,1,1.917-2.127,5.382,5.382,0,0,1,2.831-.747,4.824,4.824,0,0,1,3.754,1.5,6.111,6.111,0,0,1,1.37,4.265V-4.8h-7.4a2.884,2.884,0,0,0,.908,1.826,2.744,2.744,0,0,0,1.917.688,3.351,3.351,0,0,0,2.8-1.3L25-1.88A4.66,4.66,0,0,1,23.106-.338,6.2,6.2,0,0,1,20.464.215Zm-.354-9.55a1.94,1.94,0,0,0-1.5.626,3.241,3.241,0,0,0-.736,1.791h4.318v-.248a2.311,2.311,0,0,0-.559-1.6A2,2,0,0,0,20.109-9.335ZM31.84-2.288a2.036,2.036,0,0,0,1.4-.473,1.656,1.656,0,0,0,.559-1.257h2.911a3.982,3.982,0,0,1-.645,2.165A4.253,4.253,0,0,1,34.327-.328a5.43,5.43,0,0,1-2.433.542A5.046,5.046,0,0,1,27.962-1.37a6.27,6.27,0,0,1-1.439-4.377v-.2a6.2,6.2,0,0,1,1.429-4.286,4.987,4.987,0,0,1,3.921-1.6,4.889,4.889,0,0,1,3.5,1.241,4.393,4.393,0,0,1,1.337,3.3H33.795a2.133,2.133,0,0,0-.559-1.474,1.862,1.862,0,0,0-1.418-.567,1.87,1.87,0,0,0-1.638.791,4.583,4.583,0,0,0-.553,2.566v.323a4.641,4.641,0,0,0,.548,2.582A1.893,1.893,0,0,0,31.84-2.288ZM41.755,0H38.64V-11.623h3.115Zm-3.3-14.631a1.529,1.529,0,0,1,.467-1.149,1.755,1.755,0,0,1,1.273-.451,1.759,1.759,0,0,1,1.268.451,1.52,1.52,0,0,1,.473,1.149,1.524,1.524,0,0,1-.478,1.16,1.764,1.764,0,0,1-1.262.451,1.764,1.764,0,0,1-1.262-.451A1.524,1.524,0,0,1,38.457-14.631Zm8.712,3.008.1,1.343a4.058,4.058,0,0,1,3.341-1.558,3.372,3.372,0,0,1,2.75,1.085,5.062,5.062,0,0,1,.924,3.244V0h-3.1V-7.434a2.014,2.014,0,0,0-.43-1.434,1.924,1.924,0,0,0-1.429-.446A2.136,2.136,0,0,0,47.351-8.2V0h-3.1V-11.623ZM56.149-5.9a7,7,0,0,1,1.219-4.329A3.956,3.956,0,0,1,60.7-11.838a3.56,3.56,0,0,1,2.8,1.268V-16.5h3.115V0h-2.8l-.15-1.235A3.653,3.653,0,0,1,60.683.215,3.945,3.945,0,0,1,57.39-1.4,7.23,7.23,0,0,1,56.149-5.9Zm3.1.231a4.588,4.588,0,0,0,.569,2.507,1.855,1.855,0,0,0,1.654.871A2.077,2.077,0,0,0,63.508-3.5V-8.1A2.048,2.048,0,0,0,61.5-9.313Q59.254-9.313,59.254-5.666ZM75.765,0a3.448,3.448,0,0,1-.312-1.042A3.756,3.756,0,0,1,72.52.215,4.127,4.127,0,0,1,69.69-.773a3.178,3.178,0,0,1-1.123-2.492A3.285,3.285,0,0,1,69.937-6.1a6.758,6.758,0,0,1,3.958-1h1.429v-.666a1.915,1.915,0,0,0-.414-1.289,1.627,1.627,0,0,0-1.305-.483,1.85,1.85,0,0,0-1.23.376,1.277,1.277,0,0,0-.446,1.031h-3.1A3.118,3.118,0,0,1,69.448-10a4.118,4.118,0,0,1,1.762-1.348,6.42,6.42,0,0,1,2.557-.489,5.073,5.073,0,0,1,3.411,1.08,3.777,3.777,0,0,1,1.262,3.035v5.038a5.557,5.557,0,0,0,.462,2.5V0ZM73.2-2.159a2.674,2.674,0,0,0,1.268-.306,2.011,2.011,0,0,0,.859-.822v-2h-1.16q-2.331,0-2.481,1.611l-.011.183a1.243,1.243,0,0,0,.408.956A1.586,1.586,0,0,0,73.2-2.159ZM87.355-8.712A8.434,8.434,0,0,0,86.238-8.8a2.274,2.274,0,0,0-2.31,1.192V0h-3.1V-11.623h2.933l.086,1.386a2.877,2.877,0,0,1,2.589-1.6,3.253,3.253,0,0,1,.967.14ZM92.125,0H89.01V-11.623h3.115Zm-3.3-14.631a1.529,1.529,0,0,1,.467-1.149,1.755,1.755,0,0,1,1.273-.451,1.759,1.759,0,0,1,1.268.451,1.52,1.52,0,0,1,.473,1.149,1.524,1.524,0,0,1-.478,1.16,1.764,1.764,0,0,1-1.262.451,1.764,1.764,0,0,1-1.262-.451A1.524,1.524,0,0,1,88.827-14.631ZM94.2-5.919A6.893,6.893,0,0,1,94.864-9,4.876,4.876,0,0,1,96.782-11.1a5.594,5.594,0,0,1,2.906-.741,5.293,5.293,0,0,1,3.84,1.439,5.777,5.777,0,0,1,1.66,3.91l.021.795A6.075,6.075,0,0,1,103.716-1.4,5.19,5.19,0,0,1,99.709.215,5.216,5.216,0,0,1,95.7-1.4a6.182,6.182,0,0,1-1.5-4.383Zm3.1.22a4.345,4.345,0,0,0,.623,2.534,2.055,2.055,0,0,0,1.783.877,2.06,2.06,0,0,0,1.762-.866,4.754,4.754,0,0,0,.634-2.77,4.3,4.3,0,0,0-.634-2.518,2.06,2.06,0,0,0-1.783-.893,2.027,2.027,0,0,0-1.762.888A4.834,4.834,0,0,0,97.3-5.7Z" transform="translate(751.5 4910.308)" fill="#001c35"/>
    <path id="Trazado_1321784" data-name="Trazado 1321784" d="M10.227-3.223H4.576L3.5,0H.075L5.9-15.641H8.884L14.738,0H11.312Zm-4.78-2.61h3.91L7.391-11.687Zm13.108-5.79.1,1.3a4.085,4.085,0,0,1,3.341-1.515,3.1,3.1,0,0,1,3.083,1.772,3.991,3.991,0,0,1,3.491-1.772,3.467,3.467,0,0,1,2.814,1.1A5.061,5.061,0,0,1,32.3-7.423V0H29.189V-7.412A2.213,2.213,0,0,0,28.8-8.857a1.714,1.714,0,0,0-1.364-.457A1.938,1.938,0,0,0,25.5-7.981L25.515,0h-3.1V-7.4a2.186,2.186,0,0,0-.4-1.461,1.731,1.731,0,0,0-1.354-.451,2.012,2.012,0,0,0-1.912,1.1V0h-3.1V-11.623ZM37.965,0H34.85V-11.623h3.115Zm-3.3-14.631a1.529,1.529,0,0,1,.467-1.149,1.755,1.755,0,0,1,1.273-.451,1.759,1.759,0,0,1,1.268.451,1.52,1.52,0,0,1,.473,1.149,1.524,1.524,0,0,1-.478,1.16,1.764,1.764,0,0,1-1.262.451,1.764,1.764,0,0,1-1.262-.451A1.524,1.524,0,0,1,34.668-14.631Zm5.4,8.733a6.812,6.812,0,0,1,1.273-4.308,4.125,4.125,0,0,1,3.432-1.633,3.617,3.617,0,0,1,2.976,1.311l.129-1.1h2.814V-.387A4.968,4.968,0,0,1,50,2.267a4.45,4.45,0,0,1-1.95,1.719,6.854,6.854,0,0,1-2.943.591,6.373,6.373,0,0,1-2.492-.51A4.423,4.423,0,0,1,40.78,2.75L42.155.859a3.637,3.637,0,0,0,2.814,1.3A2.662,2.662,0,0,0,46.892,1.5,2.478,2.478,0,0,0,47.58-.376V-1A3.591,3.591,0,0,1,44.754.215a4.114,4.114,0,0,1-3.389-1.638,6.81,6.81,0,0,1-1.294-4.345Zm3.1.231a4.242,4.242,0,0,0,.634,2.48,2.016,2.016,0,0,0,1.74.9,2.156,2.156,0,0,0,2.03-1.065v-4.9a2.151,2.151,0,0,0-2.009-1.065,2.029,2.029,0,0,0-1.756.915A4.781,4.781,0,0,0,43.175-5.666ZM52.6-5.919A6.893,6.893,0,0,1,53.262-9,4.876,4.876,0,0,1,55.18-11.1a5.594,5.594,0,0,1,2.906-.741,5.293,5.293,0,0,1,3.84,1.439,5.777,5.777,0,0,1,1.66,3.91l.021.795A6.075,6.075,0,0,1,62.114-1.4,5.19,5.19,0,0,1,58.107.215,5.216,5.216,0,0,1,54.095-1.4a6.182,6.182,0,0,1-1.5-4.383Zm3.1.22a4.345,4.345,0,0,0,.623,2.534,2.055,2.055,0,0,0,1.783.877,2.06,2.06,0,0,0,1.762-.866,4.754,4.754,0,0,0,.634-2.77,4.3,4.3,0,0,0-.634-2.518,2.06,2.06,0,0,0-1.783-.893,2.027,2.027,0,0,0-1.762.888A4.834,4.834,0,0,0,55.7-5.7ZM71.814-3.212a1,1,0,0,0-.564-.9,6.406,6.406,0,0,0-1.81-.585q-4.146-.87-4.146-3.523A3.194,3.194,0,0,1,66.577-10.8a5.178,5.178,0,0,1,3.357-1.037,5.573,5.573,0,0,1,3.54,1.042A3.284,3.284,0,0,1,74.8-8.089H71.7a1.5,1.5,0,0,0-.43-1.1,1.818,1.818,0,0,0-1.343-.435,1.858,1.858,0,0,0-1.214.354,1.119,1.119,0,0,0-.43.9.957.957,0,0,0,.489.833,5.028,5.028,0,0,0,1.649.548,13.468,13.468,0,0,1,1.955.521,3.212,3.212,0,0,1,2.46,3.126A3.032,3.032,0,0,1,73.468-.768a5.885,5.885,0,0,1-3.523.983,6.147,6.147,0,0,1-2.594-.521,4.353,4.353,0,0,1-1.778-1.429,3.32,3.32,0,0,1-.645-1.96h2.943a1.621,1.621,0,0,0,.612,1.268,2.429,2.429,0,0,0,1.525.44,2.248,2.248,0,0,0,1.348-.338A1.053,1.053,0,0,0,71.814-3.212Z" transform="translate(955.733 4980.369)" fill="#001c35"/>
    <path id="Trazado_1321785" data-name="Trazado 1321785" d="M14.3-5.447a5.786,5.786,0,0,1-1.948,4.155A6.843,6.843,0,0,1,7.715.225,6.153,6.153,0,0,1,2.768-1.892,8.68,8.68,0,0,1,.966-7.7v-1A9.8,9.8,0,0,1,1.8-12.859a6.228,6.228,0,0,1,2.375-2.757,6.654,6.654,0,0,1,3.588-.96,6.666,6.666,0,0,1,4.56,1.516,6.218,6.218,0,0,1,2,4.256H10.95a3.415,3.415,0,0,0-.882-2.3,3.265,3.265,0,0,0-2.308-.713,2.863,2.863,0,0,0-2.521,1.207A6.766,6.766,0,0,0,4.38-8.861v1.235a7.242,7.242,0,0,0,.8,3.875A2.81,2.81,0,0,0,7.715-2.527a3.326,3.326,0,0,0,2.33-.713,3.221,3.221,0,0,0,.882-2.207Zm9.276,4.211A4.07,4.07,0,0,1,20.249.225,3.839,3.839,0,0,1,17.267-.9a4.794,4.794,0,0,1-1.05-3.291v-7.962h3.246v7.859q0,1.9,1.729,1.9A2.343,2.343,0,0,0,23.46-3.539v-8.612h3.257V0H23.663ZM32.591,0H29.334V-17.25h3.257Zm6.559-15.139v2.987h2.078v2.381H39.149v6.064a1.448,1.448,0,0,0,.258.966,1.3,1.3,0,0,0,.988.292,5.176,5.176,0,0,0,.955-.079V-.067a6.682,6.682,0,0,1-1.965.292q-3.414,0-3.481-3.448V-9.771H34.129v-2.381H35.9v-2.987Zm11.163,13.9A4.07,4.07,0,0,1,46.988.225,3.839,3.839,0,0,1,44.007-.9a4.794,4.794,0,0,1-1.05-3.291v-7.962H46.2v7.859q0,1.9,1.729,1.9A2.343,2.343,0,0,0,50.2-3.539v-8.612h3.257V0H50.4ZM62.733-9.108a8.818,8.818,0,0,0-1.168-.09,2.377,2.377,0,0,0-2.415,1.247V0H55.905V-12.151h3.066l.09,1.449a3.007,3.007,0,0,1,2.707-1.673,3.4,3.4,0,0,1,1.011.146ZM70.631,0a3.6,3.6,0,0,1-.326-1.089A3.927,3.927,0,0,1,67.239.225,4.314,4.314,0,0,1,64.28-.809a3.323,3.323,0,0,1-1.174-2.605,3.434,3.434,0,0,1,1.432-2.965,7.065,7.065,0,0,1,4.138-1.044h1.494v-.7a2,2,0,0,0-.432-1.348,1.7,1.7,0,0,0-1.365-.505,1.934,1.934,0,0,0-1.286.393A1.335,1.335,0,0,0,66.622-8.5H63.376a3.26,3.26,0,0,1,.651-1.954,4.306,4.306,0,0,1,1.842-1.409,6.712,6.712,0,0,1,2.673-.511,5.3,5.3,0,0,1,3.566,1.129,3.948,3.948,0,0,1,1.32,3.173v5.267A5.809,5.809,0,0,0,73.91-.191V0ZM67.947-2.257a2.8,2.8,0,0,0,1.325-.32,2.1,2.1,0,0,0,.9-.859V-5.525H68.958q-2.437,0-2.594,1.685l-.011.191a1.3,1.3,0,0,0,.427,1A1.658,1.658,0,0,0,67.947-2.257Z" transform="translate(988.862 5191.59)" fill="#001c35"/>
    <g id="Grupo_1188569" data-name="Grupo 1188569" transform="translate(489.684 4829)">
      <path id="Trazado_1321794" data-name="Trazado 1321794" d="M13.675-5.21a5.535,5.535,0,0,1-1.864,3.975A6.546,6.546,0,0,1,7.38.215,5.886,5.886,0,0,1,2.648-1.81,8.3,8.3,0,0,1,.924-7.369v-.956A9.376,9.376,0,0,1,1.719-12.3a5.957,5.957,0,0,1,2.272-2.637,6.364,6.364,0,0,1,3.432-.918,6.376,6.376,0,0,1,4.361,1.45A5.948,5.948,0,0,1,13.7-10.334H10.474a3.266,3.266,0,0,0-.843-2.2,3.123,3.123,0,0,0-2.208-.682,2.738,2.738,0,0,0-2.412,1.155,6.472,6.472,0,0,0-.822,3.583v1.182a6.927,6.927,0,0,0,.768,3.706A2.687,2.687,0,0,0,7.38-2.417,3.182,3.182,0,0,0,9.609-3.1a3.081,3.081,0,0,0,.843-2.111ZM15.1-5.919A6.893,6.893,0,0,1,15.77-9,4.876,4.876,0,0,1,17.687-11.1a5.594,5.594,0,0,1,2.906-.741,5.293,5.293,0,0,1,3.84,1.439,5.777,5.777,0,0,1,1.66,3.91l.021.795A6.075,6.075,0,0,1,24.621-1.4,5.19,5.19,0,0,1,20.614.215,5.216,5.216,0,0,1,16.6-1.4a6.182,6.182,0,0,1-1.5-4.383Zm3.1.22a4.345,4.345,0,0,0,.623,2.534,2.055,2.055,0,0,0,1.783.877,2.06,2.06,0,0,0,1.762-.866,4.754,4.754,0,0,0,.634-2.77,4.3,4.3,0,0,0-.634-2.518,2.06,2.06,0,0,0-1.783-.893,2.027,2.027,0,0,0-1.762.888A4.834,4.834,0,0,0,18.208-5.7ZM31.3,0H28.188V-16.5H31.3Zm7.906.215a5.706,5.706,0,0,1-4.163-1.568A5.575,5.575,0,0,1,33.44-5.532v-.3a7.021,7.021,0,0,1,.677-3.131,4.967,4.967,0,0,1,1.917-2.127,5.382,5.382,0,0,1,2.831-.747,4.824,4.824,0,0,1,3.754,1.5,6.111,6.111,0,0,1,1.37,4.265V-4.8h-7.4A2.884,2.884,0,0,0,37.5-2.976a2.744,2.744,0,0,0,1.917.688,3.351,3.351,0,0,0,2.8-1.3L43.742-1.88A4.66,4.66,0,0,1,41.852-.338,6.2,6.2,0,0,1,39.209.215Zm-.354-9.55a1.94,1.94,0,0,0-1.5.626,3.241,3.241,0,0,0-.736,1.791h4.318v-.248a2.311,2.311,0,0,0-.559-1.6A2,2,0,0,0,38.854-9.335ZM45.3-5.9a6.812,6.812,0,0,1,1.273-4.308A4.125,4.125,0,0,1,50-11.838a3.617,3.617,0,0,1,2.976,1.311l.129-1.1h2.814V-.387a4.968,4.968,0,0,1-.693,2.653,4.45,4.45,0,0,1-1.95,1.719,6.854,6.854,0,0,1-2.943.591,6.373,6.373,0,0,1-2.492-.51A4.423,4.423,0,0,1,46.009,2.75L47.384.859a3.637,3.637,0,0,0,2.814,1.3A2.662,2.662,0,0,0,52.121,1.5a2.478,2.478,0,0,0,.688-1.875V-1A3.591,3.591,0,0,1,49.983.215a4.114,4.114,0,0,1-3.389-1.638A6.81,6.81,0,0,1,45.3-5.769Zm3.1.231a4.242,4.242,0,0,0,.634,2.48,2.016,2.016,0,0,0,1.74.9,2.156,2.156,0,0,0,2.03-1.065v-4.9A2.151,2.151,0,0,0,50.8-9.313a2.029,2.029,0,0,0-1.756.915A4.781,4.781,0,0,0,48.4-5.666ZM61.585,0H58.47V-11.623h3.115Zm-3.3-14.631a1.529,1.529,0,0,1,.467-1.149,1.755,1.755,0,0,1,1.273-.451,1.759,1.759,0,0,1,1.268.451,1.52,1.52,0,0,1,.473,1.149,1.524,1.524,0,0,1-.478,1.16,1.764,1.764,0,0,1-1.262.451,1.764,1.764,0,0,1-1.262-.451A1.524,1.524,0,0,1,58.287-14.631Zm5.371,8.712A6.893,6.893,0,0,1,64.324-9,4.876,4.876,0,0,1,66.242-11.1a5.594,5.594,0,0,1,2.906-.741,5.293,5.293,0,0,1,3.84,1.439,5.777,5.777,0,0,1,1.66,3.91l.021.795A6.075,6.075,0,0,1,73.176-1.4,5.19,5.19,0,0,1,69.169.215,5.216,5.216,0,0,1,65.157-1.4a6.182,6.182,0,0,1-1.5-4.383Zm3.1.22a4.345,4.345,0,0,0,.623,2.534,2.055,2.055,0,0,0,1.783.877,2.06,2.06,0,0,0,1.762-.866,4.754,4.754,0,0,0,.634-2.77,4.3,4.3,0,0,0-.634-2.518,2.06,2.06,0,0,0-1.783-.893,2.027,2.027,0,0,0-1.762.888A4.834,4.834,0,0,0,66.763-5.7Z" transform="translate(372.026 517.968)" fill="#001c35"/>
      <path id="Trazado_1321795" data-name="Trazado 1321795" d="M1.393-6.648a17.235,17.235,0,0,1,.685-4.9A12.921,12.921,0,0,1,4.1-15.661,7.548,7.548,0,0,1,7-18.148L7.625-16.4a7.817,7.817,0,0,0-2.561,3.751,17.368,17.368,0,0,0-.921,5.93v.348a17.7,17.7,0,0,0,.91,5.952A7.969,7.969,0,0,0,7.625,3.392L7,5.11A7.551,7.551,0,0,1,4.15,2.69a12.705,12.705,0,0,1-2.016-4,17.133,17.133,0,0,1-.741-4.739ZM14.914.225a5.965,5.965,0,0,1-4.352-1.64A5.828,5.828,0,0,1,8.883-5.784V-6.1a7.341,7.341,0,0,1,.708-3.274,5.192,5.192,0,0,1,2-2.224,5.627,5.627,0,0,1,2.959-.781A5.043,5.043,0,0,1,18.48-10.8a6.389,6.389,0,0,1,1.432,4.458V-5.02H12.174a3.015,3.015,0,0,0,.949,1.909,2.869,2.869,0,0,0,2,.719,3.5,3.5,0,0,0,2.931-1.359l1.595,1.786A4.872,4.872,0,0,1,17.677-.354,6.485,6.485,0,0,1,14.914.225Zm-.371-9.984a2.028,2.028,0,0,0-1.567.654,3.388,3.388,0,0,0-.769,1.873h4.515v-.26a2.416,2.416,0,0,0-.584-1.675A2.092,2.092,0,0,0,14.543-9.759Zm6.7,3.594a7.323,7.323,0,0,1,1.275-4.526,4.136,4.136,0,0,1,3.487-1.685,3.722,3.722,0,0,1,2.931,1.325v-6.2H32.2V0H29.267l-.157-1.292A3.819,3.819,0,0,1,25.987.225a4.125,4.125,0,0,1-3.442-1.69A7.559,7.559,0,0,1,21.248-6.166Zm3.246.242a4.8,4.8,0,0,0,.6,2.621,1.939,1.939,0,0,0,1.729.911,2.172,2.172,0,0,0,2.123-1.271v-4.8a2.141,2.141,0,0,0-2.1-1.271Q24.494-9.737,24.494-5.924Zm17.5,4.689A4.07,4.07,0,0,1,38.667.225,3.839,3.839,0,0,1,35.685-.9a4.794,4.794,0,0,1-1.05-3.291v-7.962H37.88v7.859q0,1.9,1.729,1.9a2.343,2.343,0,0,0,2.269-1.147v-8.612h3.257V0H42.081ZM52.637-2.392a2.129,2.129,0,0,0,1.46-.494A1.731,1.731,0,0,0,54.681-4.2h3.043a4.163,4.163,0,0,1-.674,2.263A4.446,4.446,0,0,1,55.237-.343a5.676,5.676,0,0,1-2.544.567,5.275,5.275,0,0,1-4.11-1.656,6.555,6.555,0,0,1-1.5-4.576v-.213A6.48,6.48,0,0,1,48.572-10.7a5.214,5.214,0,0,1,4.1-1.673,5.111,5.111,0,0,1,3.656,1.3,4.593,4.593,0,0,1,1.4,3.453H54.681A2.23,2.23,0,0,0,54.1-9.167a1.947,1.947,0,0,0-1.482-.593,1.955,1.955,0,0,0-1.713.827,4.791,4.791,0,0,0-.578,2.683v.337a4.852,4.852,0,0,0,.573,2.7A1.979,1.979,0,0,0,52.637-2.392ZM66.619,0a3.6,3.6,0,0,1-.326-1.089A3.927,3.927,0,0,1,63.228.225,4.314,4.314,0,0,1,60.268-.809a3.323,3.323,0,0,1-1.174-2.605,3.434,3.434,0,0,1,1.432-2.965,7.065,7.065,0,0,1,4.138-1.044h1.494v-.7a2,2,0,0,0-.432-1.348,1.7,1.7,0,0,0-1.365-.505,1.934,1.934,0,0,0-1.286.393A1.335,1.335,0,0,0,62.61-8.5H59.364a3.26,3.26,0,0,1,.651-1.954,4.306,4.306,0,0,1,1.842-1.409,6.712,6.712,0,0,1,2.673-.511A5.3,5.3,0,0,1,68.1-11.247a3.948,3.948,0,0,1,1.32,3.173v5.267A5.809,5.809,0,0,0,69.9-.191V0ZM63.935-2.257a2.8,2.8,0,0,0,1.325-.32,2.1,2.1,0,0,0,.9-.859V-5.525H64.946q-2.437,0-2.594,1.685l-.011.191a1.3,1.3,0,0,0,.427,1A1.658,1.658,0,0,0,63.935-2.257ZM75.794-15.139v2.987h2.078v2.381H75.794v6.064a1.448,1.448,0,0,0,.258.966,1.3,1.3,0,0,0,.988.292A5.176,5.176,0,0,0,78-2.527V-.067A6.682,6.682,0,0,1,76.03.225q-3.414,0-3.481-3.448V-9.771H70.774v-2.381h1.774v-2.987ZM83.105,0H79.849V-12.151h3.257ZM79.658-15.3a1.6,1.6,0,0,1,.489-1.2,1.835,1.835,0,0,1,1.331-.472A1.839,1.839,0,0,1,82.8-16.5a1.589,1.589,0,0,1,.494,1.2,1.593,1.593,0,0,1-.5,1.213,1.844,1.844,0,0,1-1.32.472,1.844,1.844,0,0,1-1.32-.472A1.593,1.593,0,0,1,79.658-15.3ZM90.327-3.964l2.257-8.187h3.392L91.876,0h-3.1l-4.1-12.151h3.392ZM104.114,0a3.6,3.6,0,0,1-.326-1.089A3.927,3.927,0,0,1,100.722.225,4.314,4.314,0,0,1,97.763-.809a3.323,3.323,0,0,1-1.174-2.605,3.434,3.434,0,0,1,1.432-2.965,7.065,7.065,0,0,1,4.138-1.044h1.494v-.7a2,2,0,0,0-.432-1.348,1.7,1.7,0,0,0-1.365-.505,1.934,1.934,0,0,0-1.286.393A1.335,1.335,0,0,0,100.1-8.5H96.859a3.26,3.26,0,0,1,.651-1.954,4.306,4.306,0,0,1,1.842-1.409,6.712,6.712,0,0,1,2.673-.511,5.3,5.3,0,0,1,3.566,1.129,3.948,3.948,0,0,1,1.32,3.173v5.267a5.809,5.809,0,0,0,.483,2.617V0ZM101.43-2.257a2.8,2.8,0,0,0,1.325-.32,2.1,2.1,0,0,0,.9-.859V-5.525h-1.213q-2.437,0-2.594,1.685l-.011.191a1.3,1.3,0,0,0,.427,1A1.658,1.658,0,0,0,101.43-2.257ZM115-6.39a16.354,16.354,0,0,1-.73,4.885,13.261,13.261,0,0,1-2.1,4.144,7.566,7.566,0,0,1-2.931,2.471l-.629-1.718a7.9,7.9,0,0,0,2.516-3.706,17.162,17.162,0,0,0,.955-5.761v-.6a17.55,17.55,0,0,0-.915-5.918,8.232,8.232,0,0,0-2.555-3.841l.629-1.718a7.569,7.569,0,0,1,2.881,2.4,13.09,13.09,0,0,1,2.1,4.054A16.238,16.238,0,0,1,115-6.9Z" transform="translate(350.049 548.745)" fill="#001c35"/>
    </g>
    <path id="Trazado_1321786" data-name="Trazado 1321786" d="M7.176-3.878l3.545-11.763h3.588L8.862,0H5.5L.075-15.641H3.652ZM18.853,0H15.737V-11.623h3.115Zm-3.3-14.631a1.529,1.529,0,0,1,.467-1.149,1.755,1.755,0,0,1,1.273-.451,1.759,1.759,0,0,1,1.268.451,1.52,1.52,0,0,1,.473,1.149,1.524,1.524,0,0,1-.478,1.16,1.764,1.764,0,0,1-1.262.451,1.764,1.764,0,0,1-1.262-.451A1.524,1.524,0,0,1,15.555-14.631ZM27.94-8.712A8.434,8.434,0,0,0,26.823-8.8a2.274,2.274,0,0,0-2.31,1.192V0h-3.1V-11.623h2.933l.086,1.386a2.877,2.877,0,0,1,2.589-1.6,3.253,3.253,0,0,1,.967.14Zm6.275-5.769v2.857H36.2v2.277H34.215v5.8a1.385,1.385,0,0,0,.247.924,1.241,1.241,0,0,0,.945.279,4.951,4.951,0,0,0,.913-.075V-.064a6.391,6.391,0,0,1-1.88.279q-3.266,0-3.33-3.3V-9.346h-1.7v-2.277h1.7V-14.48Zm10.678,13.3a3.893,3.893,0,0,1-3.18,1.4A3.672,3.672,0,0,1,38.861-.859a4.586,4.586,0,0,1-1-3.147v-7.616h3.1v7.518q0,1.817,1.654,1.817a2.242,2.242,0,0,0,2.17-1.1v-8.238H47.9V0H44.979ZM56.978,0a3.447,3.447,0,0,1-.312-1.042A3.756,3.756,0,0,1,53.734.215,4.127,4.127,0,0,1,50.9-.773a3.178,3.178,0,0,1-1.123-2.492A3.285,3.285,0,0,1,51.151-6.1a6.758,6.758,0,0,1,3.958-1h1.429v-.666a1.915,1.915,0,0,0-.414-1.289,1.627,1.627,0,0,0-1.305-.483,1.85,1.85,0,0,0-1.23.376,1.277,1.277,0,0,0-.446,1.031h-3.1A3.119,3.119,0,0,1,50.662-10a4.118,4.118,0,0,1,1.762-1.348,6.42,6.42,0,0,1,2.557-.489,5.073,5.073,0,0,1,3.411,1.08,3.777,3.777,0,0,1,1.262,3.035v5.038a5.557,5.557,0,0,0,.462,2.5V0ZM54.411-2.159a2.674,2.674,0,0,0,1.268-.306,2.011,2.011,0,0,0,.859-.822v-2h-1.16q-2.331,0-2.481,1.611l-.011.183a1.243,1.243,0,0,0,.408.956A1.586,1.586,0,0,0,54.411-2.159ZM65.314,0H62.2V-16.5h3.115Z" transform="translate(662 5369.968)" fill="#001c35"/>
    <path id="Trazado_1321787" data-name="Trazado 1321787" d="M4.829-2.707h7.154V0H1.46V-16.352H4.829ZM20.743,0a3.6,3.6,0,0,1-.326-1.089A3.927,3.927,0,0,1,17.351.225,4.314,4.314,0,0,1,14.392-.809a3.323,3.323,0,0,1-1.174-2.605A3.434,3.434,0,0,1,14.65-6.379a7.065,7.065,0,0,1,4.138-1.044h1.494v-.7a2,2,0,0,0-.432-1.348,1.7,1.7,0,0,0-1.365-.505A1.934,1.934,0,0,0,17.2-9.58,1.335,1.335,0,0,0,16.733-8.5H13.488a3.26,3.26,0,0,1,.651-1.954,4.306,4.306,0,0,1,1.842-1.409,6.712,6.712,0,0,1,2.673-.511,5.3,5.3,0,0,1,3.566,1.129,3.948,3.948,0,0,1,1.32,3.173v5.267a5.809,5.809,0,0,0,.483,2.617V0ZM18.059-2.257a2.8,2.8,0,0,0,1.325-.32,2.1,2.1,0,0,0,.9-.859V-5.525H19.069q-2.437,0-2.594,1.685l-.011.191a1.3,1.3,0,0,0,.427,1A1.658,1.658,0,0,0,18.059-2.257ZM36.982-5.963a7.358,7.358,0,0,1-1.247,4.554A4.129,4.129,0,0,1,32.254.225,3.794,3.794,0,0,1,29.1-1.292L28.952,0h-2.92V-17.25h3.246v6.188a3.7,3.7,0,0,1,2.954-1.314,4.163,4.163,0,0,1,3.487,1.634,7.369,7.369,0,0,1,1.263,4.6ZM33.736-6.2a4.834,4.834,0,0,0-.584-2.69,1.975,1.975,0,0,0-1.741-.848,2.141,2.141,0,0,0-2.134,1.269v4.8a2.17,2.17,0,0,0,2.156,1.28A2,2,0,0,0,33.5-3.942,8,8,0,0,0,33.736-6.2Zm4.739.011a7.206,7.206,0,0,1,.7-3.223,5.1,5.1,0,0,1,2-2.19,5.849,5.849,0,0,1,3.038-.775,5.533,5.533,0,0,1,4.015,1.5,6.04,6.04,0,0,1,1.735,4.088l.022.831a6.351,6.351,0,0,1-1.561,4.487A5.426,5.426,0,0,1,44.237.225,5.453,5.453,0,0,1,40.042-1.46a6.463,6.463,0,0,1-1.567-4.582Zm3.246.23a4.542,4.542,0,0,0,.651,2.649,2.149,2.149,0,0,0,1.864.917A2.154,2.154,0,0,0,46.079-3.3a4.97,4.97,0,0,0,.663-2.9,4.5,4.5,0,0,0-.663-2.632,2.154,2.154,0,0,0-1.864-.934,2.119,2.119,0,0,0-1.842.928A5.054,5.054,0,0,0,41.721-5.958Zm17.093-3.15a8.818,8.818,0,0,0-1.168-.09,2.377,2.377,0,0,0-2.415,1.247V0H51.986V-12.151h3.066l.09,1.449a3.007,3.007,0,0,1,2.707-1.673,3.4,3.4,0,0,1,1.011.146ZM66.712,0a3.6,3.6,0,0,1-.326-1.089A3.927,3.927,0,0,1,63.32.225,4.314,4.314,0,0,1,60.361-.809a3.323,3.323,0,0,1-1.174-2.605,3.434,3.434,0,0,1,1.432-2.965,7.065,7.065,0,0,1,4.138-1.044h1.494v-.7a2,2,0,0,0-.432-1.348,1.7,1.7,0,0,0-1.365-.505,1.934,1.934,0,0,0-1.286.393A1.335,1.335,0,0,0,62.7-8.5H59.457a3.26,3.26,0,0,1,.651-1.954,4.306,4.306,0,0,1,1.842-1.409,6.712,6.712,0,0,1,2.673-.511,5.3,5.3,0,0,1,3.566,1.129,3.948,3.948,0,0,1,1.32,3.173v5.267a5.809,5.809,0,0,0,.483,2.617V0ZM64.028-2.257a2.8,2.8,0,0,0,1.325-.32,2.1,2.1,0,0,0,.9-.859V-5.525H65.038q-2.437,0-2.594,1.685l-.011.191a1.3,1.3,0,0,0,.427,1A1.658,1.658,0,0,0,64.028-2.257ZM75.426,0H72.17V-17.25h3.257Z" transform="translate(534.138 5191.59)" fill="#001c35"/>
    <path id="Trazado_1321788" data-name="Trazado 1321788" d="M11.3-6.682H4.829V0H1.46V-16.352H12.106v2.729H4.829V-9.4H11.3ZM20.139,0a3.6,3.6,0,0,1-.326-1.089A3.927,3.927,0,0,1,16.747.225,4.314,4.314,0,0,1,13.788-.809a3.323,3.323,0,0,1-1.174-2.605,3.434,3.434,0,0,1,1.432-2.965,7.065,7.065,0,0,1,4.138-1.044h1.494v-.7a2,2,0,0,0-.432-1.348,1.7,1.7,0,0,0-1.365-.505A1.934,1.934,0,0,0,16.6-9.58,1.335,1.335,0,0,0,16.13-8.5H12.884a3.26,3.26,0,0,1,.651-1.954,4.306,4.306,0,0,1,1.842-1.409,6.712,6.712,0,0,1,2.673-.511,5.3,5.3,0,0,1,3.566,1.129,3.948,3.948,0,0,1,1.32,3.173v5.267a5.809,5.809,0,0,0,.483,2.617V0ZM17.455-2.257a2.8,2.8,0,0,0,1.325-.32,2.1,2.1,0,0,0,.9-.859V-5.525H18.465q-2.437,0-2.594,1.685l-.011.191a1.3,1.3,0,0,0,.427,1A1.658,1.658,0,0,0,17.455-2.257Zm11.017-9.894.1,1.359a4.27,4.27,0,0,1,3.493-1.583,3.241,3.241,0,0,1,3.223,1.853,4.172,4.172,0,0,1,3.65-1.853,3.624,3.624,0,0,1,2.942,1.151,5.291,5.291,0,0,1,.966,3.465V0H39.59V-7.749a2.314,2.314,0,0,0-.4-1.51,1.792,1.792,0,0,0-1.426-.477,2.026,2.026,0,0,0-2.021,1.393L35.749,0H32.5V-7.738a2.286,2.286,0,0,0-.416-1.527,1.809,1.809,0,0,0-1.415-.472,2.1,2.1,0,0,0-2,1.146V0H25.428V-12.151ZM48.765,0H45.508V-12.151h3.257ZM45.318-15.3a1.6,1.6,0,0,1,.489-1.2,1.835,1.835,0,0,1,1.331-.472,1.839,1.839,0,0,1,1.325.472,1.589,1.589,0,0,1,.494,1.2,1.593,1.593,0,0,1-.5,1.213,1.844,1.844,0,0,1-1.32.472,1.844,1.844,0,0,1-1.32-.472A1.593,1.593,0,0,1,45.318-15.3ZM54.863,0H51.607V-17.25h3.257Zm6.1,0H57.7V-12.151h3.257ZM57.514-15.3A1.6,1.6,0,0,1,58-16.5a1.835,1.835,0,0,1,1.331-.472,1.839,1.839,0,0,1,1.325.472,1.589,1.589,0,0,1,.494,1.2,1.593,1.593,0,0,1-.5,1.213,1.844,1.844,0,0,1-1.32.472,1.844,1.844,0,0,1-1.32-.472A1.593,1.593,0,0,1,57.514-15.3ZM70.676,0a3.6,3.6,0,0,1-.326-1.089A3.927,3.927,0,0,1,67.284.225,4.314,4.314,0,0,1,64.325-.809a3.323,3.323,0,0,1-1.174-2.605,3.434,3.434,0,0,1,1.432-2.965,7.065,7.065,0,0,1,4.138-1.044h1.494v-.7a2,2,0,0,0-.432-1.348,1.7,1.7,0,0,0-1.365-.505,1.934,1.934,0,0,0-1.286.393A1.335,1.335,0,0,0,66.667-8.5H63.421a3.26,3.26,0,0,1,.651-1.954,4.306,4.306,0,0,1,1.842-1.409,6.712,6.712,0,0,1,2.673-.511,5.3,5.3,0,0,1,3.566,1.129,3.948,3.948,0,0,1,1.32,3.173v5.267a5.809,5.809,0,0,0,.483,2.617V0ZM67.992-2.257a2.8,2.8,0,0,0,1.325-.32,2.1,2.1,0,0,0,.9-.859V-5.525H69q-2.437,0-2.594,1.685L66.4-3.65a1.3,1.3,0,0,0,.427,1A1.658,1.658,0,0,0,67.992-2.257Z" transform="translate(572.638 4994.869)" fill="#001c35"/>
  </g>
</svg>
